<svg width="50" height="50" fill="none" xmlns="http://www.w3.org/2000/svg"><path fill-rule="evenodd" clip-rule="evenodd" d="M25 15a1 1 0 011 1v9.586l3.293-3.293a1 1 0 011.414 1.414l-5 5a1 1 0 01-1.414 0l-5-5a1 1 0 011.414-1.414L24 25.586V16a1 1 0 011-1zm-9 10a1 1 0 011 1v4a3 3 0 003 3h10a3 3 0 003-3v-4a1 1 0 112 0v4a5 5 0 01-5 5H20a5 5 0 01-5-5v-4a1 1 0 011-1z" fill="#000" fill-opacity=".2"/><path d="M25 49C11.745 49 1 38.255 1 25h-2c0 14.36 11.64 26 26 26v-2zm24-24c0 13.255-10.745 24-24 24v2c14.36 0 26-11.64 26-26h-2zM25 1c13.255 0 24 10.745 24 24h2C51 10.64 39.36-1 25-1v2zm0-2C10.64-1-1 10.64-1 25h2C1 11.745 11.745 1 25 1v-2z" fill="#000" fill-opacity=".2"/></svg>