<svg width="60" height="60" fill="none" xmlns="http://www.w3.org/2000/svg"><path d="M60 30c0 16.569-13.431 30-30 30C13.431 60 0 46.569 0 30 0 13.431 13.431 0 30 0c16.569 0 30 13.431 30 30z" fill="url(#paint0_linear)"/><path d="M57.5 30c0 15.188-12.312 27.5-27.5 27.5S2.5 45.188 2.5 30 14.812 2.5 30 2.5 57.5 14.812 57.5 30z" stroke="url(#paint1_linear)"/><path d="M14.77 23.856a4.472 4.472 0 014.471-4.472h16.61a4.472 4.472 0 014.471 4.472v12.138a4.472 4.472 0 01-4.472 4.472H19.241a4.472 4.472 0 01-4.472-4.472V23.856z" fill="url(#paint2_linear)"/><path d="M32.337 29.925l7.994 4.703v-9.406l-7.994 4.703z" fill="#000" fill-opacity=".4"/><path d="M32.337 29.925l12.92 7.6c1.49.877 3.37-.198 3.37-1.927V24.252c0-1.73-1.88-2.804-3.37-1.927l-12.92 7.6z" fill="url(#paint3_linear)" fill-opacity=".7"/><path d="M32.337 29.925l-7.187 4.15a1.597 1.597 0 01-2.396-1.384V27.16a1.597 1.597 0 012.396-1.383l7.187 4.149z" fill="#fff"/><defs><linearGradient id="paint0_linear" x1="14.818" y1="1.545" x2="44.455" y2="61.455" gradientUnits="userSpaceOnUse"><stop stop-color="#FFE86D"/><stop offset="1" stop-color="#F0C52B"/></linearGradient><linearGradient id="paint1_linear" x1="2" y1="58" x2="55.5" y2="4.5" gradientUnits="userSpaceOnUse"><stop stop-color="#F06A08"/><stop offset="1" stop-color="#FDB64B"/></linearGradient><linearGradient id="paint2_linear" x1="16.796" y1="40.466" x2="40.391" y2="21.249" gradientUnits="userSpaceOnUse"><stop stop-color="#EF6907"/><stop offset="1" stop-color="#FF9D43"/></linearGradient><linearGradient id="paint3_linear" x1="48.627" y1="23.268" x2="37.502" y2="40.311" gradientUnits="userSpaceOnUse"><stop stop-color="#EF6907"/><stop offset="1" stop-color="#FF9D43"/></linearGradient></defs></svg>