<svg width="35" height="37" fill="none" xmlns="http://www.w3.org/2000/svg"><path d="M34.414 23.717l-8.137 9.24a5.748 5.748 0 01-4.307 1.936H9.713L7.583 37 0 29.683l5.436-5.346a8.348 8.348 0 018.58-1.922l1.198.415h7.34c.625 0 1.225.25 1.66.695.436.445.67 1.046.651 1.665a2.366 2.366 0 01-2.403 2.22h-4.414a.903.903 0 00-.828.427.883.883 0 000 .924.903.903 0 00.828.427h4.414c2.238.003 4.084-1.733 4.196-3.945v-.057l4.078-4.53a2.486 2.486 0 013.392-.33 2.363 2.363 0 01.286 3.39zM31.236 4.01v.48c0 .524 0 1.064.023 1.642.05 2.54.103 5.52-.763 8.306-1.201 3.772-4.736 6.338-8.732 6.338-3.997 0-7.531-2.566-8.732-6.338-.874-2.783-.82-5.758-.764-8.306 0-.574.023-1.133.023-1.643v-.48c0-.393.323-.713.721-.713h.485c3.143 0 5.436-.853 7.439-2.767l.34-.325a.726.726 0 011.006 0l.34.325c1.972 1.914 4.265 2.767 7.416 2.767h.485a.717.717 0 01.713.714zm-5.158 4.398l-.946-.944a.638.638 0 00-.893 0l-3.555 3.52-1.389-1.368a.65.65 0 00-.892 0l-.954.956a.622.622 0 000 .883l2.781 2.753a.638.638 0 00.893 0l4.96-4.909a.624.624 0 00-.005-.89z" fill="#1EA01E"/></svg>